<svg width="289" height="201" viewBox="0 0 289 201" fill="none" xmlns="http://www.w3.org/2000/svg">
<path d="M2.624 1.2H13.376C16.8747 1.2 19.4987 2.13866 21.248 4.016C22.9973 5.89333 23.872 8.64533 23.872 12.272V34.928C23.872 38.5547 22.9973 41.3067 21.248 43.184C19.4987 45.0613 16.8747 46 13.376 46H2.624V1.2ZM13.248 39.6C14.4 39.6 15.2747 39.2587 15.872 38.576C16.512 37.8933 16.832 36.784 16.832 35.248V11.952C16.832 10.416 16.512 9.30666 15.872 8.624C15.2747 7.94133 14.4 7.6 13.248 7.6H9.664V39.6H13.248ZM38.8 46.64C35.344 46.64 32.6987 45.6587 30.864 43.696C29.0293 41.7333 28.112 38.96 28.112 35.376V11.824C28.112 8.24 29.0293 5.46666 30.864 3.504C32.6987 1.54133 35.344 0.559998 38.8 0.559998C42.256 0.559998 44.9013 1.54133 46.736 3.504C48.5707 5.46666 49.488 8.24 49.488 11.824V35.376C49.488 38.96 48.5707 41.7333 46.736 43.696C44.9013 45.6587 42.256 46.64 38.8 46.64ZM38.8 40.24C41.232 40.24 42.448 38.768 42.448 35.824V11.376C42.448 8.432 41.232 6.96 38.8 6.96C36.368 6.96 35.152 8.432 35.152 11.376V35.824C35.152 38.768 36.368 40.24 38.8 40.24ZM54.249 1.2H63.081L69.929 28.016H70.057V1.2H76.329V46H69.097L60.649 13.296H60.521V46H54.249V1.2ZM83.8655 7.984H81.5615V1.2H88.3455V7.28L84.4415 15.664H81.1775L83.8655 7.984ZM99.753 7.6H92.393V1.2H114.153V7.6H106.793V46H99.753V7.6ZM133.316 7.6H125.956V1.2H147.716V7.6H140.356V46H133.316V7.6ZM157.838 26.928L149.326 1.2H156.814L161.614 17.648H161.742L166.542 1.2H173.39L164.878 26.928V46H157.838V26.928ZM176.562 1.2H186.93C190.428 1.2 193.052 2.13866 194.802 4.016C196.551 5.89333 197.426 8.64533 197.426 12.272V16.688C197.426 20.3147 196.551 23.0667 194.802 24.944C193.052 26.8213 190.428 27.76 186.93 27.76H183.602V46H176.562V1.2ZM186.93 21.36C188.082 21.36 188.935 21.04 189.49 20.4C190.087 19.76 190.385 18.672 190.385 17.136V11.824C190.385 10.288 190.087 9.2 189.49 8.56C188.935 7.92 188.082 7.6 186.93 7.6H183.602V21.36H186.93ZM201.249 1.2H220.449V7.6H208.289V19.44H217.953V25.84H208.289V39.6H220.449V46H201.249V1.2ZM227.116 46H224.812V39.216H231.595V45.296L228.076 53.68H224.812L227.116 46ZM197.651 103.928L189.139 78.2H196.627L201.427 94.648H201.555L206.355 78.2H213.203L204.691 103.928V123H197.651V103.928ZM225.425 123.64C221.969 123.64 219.324 122.659 217.489 120.696C215.654 118.733 214.737 115.96 214.737 112.376V88.824C214.737 85.24 215.654 82.4667 217.489 80.504C219.324 78.5413 221.969 77.56 225.425 77.56C228.881 77.56 231.526 78.5413 233.361 80.504C235.196 82.4667 236.113 85.24 236.113 88.824V112.376C236.113 115.96 235.196 118.733 233.361 120.696C231.526 122.659 228.881 123.64 225.425 123.64ZM225.425 117.24C227.857 117.24 229.073 115.768 229.073 112.824V88.376C229.073 85.432 227.857 83.96 225.425 83.96C222.993 83.96 221.777 85.432 221.777 88.376V112.824C221.777 115.768 222.993 117.24 225.425 117.24ZM251.114 123.64C247.701 123.64 245.098 122.68 243.306 120.76C241.514 118.797 240.618 116.003 240.618 112.376V78.2H247.658V112.888C247.658 114.424 247.957 115.533 248.554 116.216C249.194 116.899 250.09 117.24 251.242 117.24C252.394 117.24 253.269 116.899 253.866 116.216C254.506 115.533 254.826 114.424 254.826 112.888V78.2H261.61V112.376C261.61 116.003 260.714 118.797 258.922 120.76C257.13 122.68 254.527 123.64 251.114 123.64ZM266.624 78.2H277.056C280.683 78.2 283.328 79.0533 284.992 80.76C286.656 82.424 287.488 85.0053 287.488 88.504V91.256C287.488 95.9067 285.952 98.8507 282.88 100.088V100.216C284.587 100.728 285.781 101.773 286.464 103.352C287.189 104.931 287.552 107.043 287.552 109.688V117.56C287.552 118.84 287.595 119.885 287.68 120.696C287.765 121.464 287.979 122.232 288.32 123H281.152C280.896 122.275 280.725 121.592 280.64 120.952C280.555 120.312 280.512 119.16 280.512 117.496V109.304C280.512 107.256 280.171 105.827 279.488 105.016C278.848 104.205 277.717 103.8 276.096 103.8H273.664V123H266.624V78.2ZM276.224 97.4C277.632 97.4 278.677 97.0373 279.36 96.312C280.085 95.5867 280.448 94.3707 280.448 92.664V89.208C280.448 87.5867 280.149 86.4133 279.552 85.688C278.997 84.9627 278.101 84.6 276.864 84.6H273.664V97.4H276.224ZM12.544 200.64C9.17333 200.64 6.592 199.68 4.8 197.76C3.05067 195.84 2.176 193.131 2.176 189.632V165.568C2.176 162.069 3.05067 159.36 4.8 157.44C6.592 155.52 9.17333 154.56 12.544 154.56C15.9147 154.56 18.4747 155.52 20.224 157.44C22.016 159.36 22.912 162.069 22.912 165.568V170.304H16.256V165.12C16.256 162.347 15.0827 160.96 12.736 160.96C10.3893 160.96 9.216 162.347 9.216 165.12V190.144C9.216 192.875 10.3893 194.24 12.736 194.24C15.0827 194.24 16.256 192.875 16.256 190.144V183.296H22.912V189.632C22.912 193.131 22.016 195.84 20.224 197.76C18.4747 199.68 15.9147 200.64 12.544 200.64ZM27.124 155.2H37.556C41.1827 155.2 43.828 156.053 45.492 157.76C47.156 159.424 47.988 162.005 47.988 165.504V168.256C47.988 172.907 46.452 175.851 43.38 177.088V177.216C45.0867 177.728 46.2813 178.773 46.964 180.352C47.6893 181.931 48.052 184.043 48.052 186.688V194.56C48.052 195.84 48.0947 196.885 48.18 197.696C48.2653 198.464 48.4787 199.232 48.82 200H41.652C41.396 199.275 41.2253 198.592 41.14 197.952C41.0547 197.312 41.012 196.16 41.012 194.496V186.304C41.012 184.256 40.6707 182.827 39.988 182.016C39.348 181.205 38.2173 180.8 36.596 180.8H34.164V200H27.124V155.2ZM36.724 174.4C38.132 174.4 39.1773 174.037 39.86 173.312C40.5853 172.587 40.948 171.371 40.948 169.664V166.208C40.948 164.587 40.6493 163.413 40.052 162.688C39.4973 161.963 38.6013 161.6 37.364 161.6H34.164V174.4H36.724ZM52.9365 155.2H72.1365V161.6H59.9765V173.44H69.6405V179.84H59.9765V193.6H72.1365V200H52.9365V155.2ZM76.1865 155.2H86.9385C90.4372 155.2 93.0612 156.139 94.8105 158.016C96.5598 159.893 97.4345 162.645 97.4345 166.272V188.928C97.4345 192.555 96.5598 195.307 94.8105 197.184C93.0612 199.061 90.4372 200 86.9385 200H76.1865V155.2ZM86.8105 193.6C87.9625 193.6 88.8372 193.259 89.4345 192.576C90.0745 191.893 90.3945 190.784 90.3945 189.248V165.952C90.3945 164.416 90.0745 163.307 89.4345 162.624C88.8372 161.941 87.9625 161.6 86.8105 161.6H83.2265V193.6H86.8105ZM102.187 155.2H121.387V161.6H109.227V173.44H118.891V179.84H109.227V193.6H121.387V200H102.187V155.2ZM125.437 155.2H134.269L141.117 182.016H141.245V155.2H147.517V200H140.285L131.837 167.296H131.709V200H125.437V155.2ZM158.253 161.6H150.893V155.2H172.653V161.6H165.293V200H158.253V161.6ZM176.062 155.2H183.102V200H176.062V155.2ZM193.814 155.2H203.35L210.646 200H203.606L202.326 191.104V191.232H194.326L193.046 200H186.518L193.814 155.2ZM201.494 185.152L198.358 163.008H198.23L195.158 185.152H201.494ZM214.062 155.2H221.102V193.6H232.686V200H214.062V155.2ZM245.214 200.64C241.8 200.64 239.219 199.68 237.47 197.76C235.72 195.797 234.846 193.003 234.846 189.376V186.816H241.502V189.888C241.502 192.789 242.718 194.24 245.15 194.24C246.344 194.24 247.24 193.899 247.838 193.216C248.478 192.491 248.798 191.339 248.798 189.76C248.798 187.883 248.371 186.24 247.518 184.832C246.664 183.381 245.086 181.653 242.782 179.648C239.88 177.088 237.854 174.784 236.702 172.736C235.55 170.645 234.974 168.299 234.974 165.696C234.974 162.155 235.87 159.424 237.661 157.504C239.454 155.541 242.056 154.56 245.47 154.56C248.84 154.56 251.379 155.541 253.086 157.504C254.835 159.424 255.71 162.197 255.71 165.824V167.68H249.054V165.376C249.054 163.84 248.755 162.731 248.158 162.048C247.56 161.323 246.686 160.96 245.534 160.96C243.187 160.96 242.014 162.389 242.014 165.248C242.014 166.869 242.44 168.384 243.294 169.792C244.19 171.2 245.79 172.907 248.094 174.912C251.038 177.472 253.064 179.797 254.174 181.888C255.283 183.979 255.838 186.432 255.838 189.248C255.838 192.917 254.92 195.733 253.086 197.696C251.294 199.659 248.67 200.64 245.214 200.64ZM259.874 193.216H266.658V200H259.874V193.216Z" fill="#545974"/>
<path d="M8.064 78.2H17.6L24.896 123H17.856L16.576 114.104V114.232H8.576L7.296 123H0.768L8.064 78.2ZM15.744 108.152L12.608 86.008H12.48L9.408 108.152H15.744ZM38.4265 123.64C35.0132 123.64 32.4105 122.68 30.6185 120.76C28.8265 118.797 27.9305 116.003 27.9305 112.376V78.2H34.9705V112.888C34.9705 114.424 35.2692 115.533 35.8665 116.216C36.5065 116.899 37.4025 117.24 38.5545 117.24C39.7065 117.24 40.5812 116.899 41.1785 116.216C41.8185 115.533 42.1385 114.424 42.1385 112.888V78.2H48.9225V112.376C48.9225 116.003 48.0265 118.797 46.2345 120.76C44.4425 122.68 41.8398 123.64 38.4265 123.64ZM59.4405 84.6H52.0805V78.2H73.8405V84.6H66.4805V123H59.4405V84.6ZM87.175 123.64C83.719 123.64 81.0737 122.659 79.239 120.696C77.4043 118.733 76.487 115.96 76.487 112.376V88.824C76.487 85.24 77.4043 82.4667 79.239 80.504C81.0737 78.5413 83.719 77.56 87.175 77.56C90.631 77.56 93.2763 78.5413 95.111 80.504C96.9457 82.4667 97.863 85.24 97.863 88.824V112.376C97.863 115.96 96.9457 118.733 95.111 120.696C93.2763 122.659 90.631 123.64 87.175 123.64ZM87.175 117.24C89.607 117.24 90.823 115.768 90.823 112.824V88.376C90.823 85.432 89.607 83.96 87.175 83.96C84.743 83.96 83.527 85.432 83.527 88.376V112.824C83.527 115.768 84.743 117.24 87.175 117.24ZM102.624 78.2H121.248V84.6H109.664V97.08H118.752V103.48H109.664V123H102.624V78.2ZM124.624 78.2H131.664V123H124.624V78.2ZM136.937 78.2H143.977V116.6H155.561V123H136.937V78.2ZM158.937 78.2H165.977V116.6H177.561V123H158.937V78.2Z" fill="#FF6464"/>
</svg>
