<svg width="317" height="200" viewBox="0 0 317 200" fill="none" xmlns="http://www.w3.org/2000/svg">
<path d="M8.064 1.2H17.6L24.896 46H17.856L16.576 37.104V37.232H8.576L7.296 46H0.768L8.064 1.2ZM15.744 31.152L12.608 9.008H12.48L9.408 31.152H15.744ZM28.3115 1.2H35.3515V39.6H46.9355V46H28.3115V1.2ZM50.3115 1.2H57.3515V39.6H68.9355V46H50.3115V1.2ZM89.0255 26.928L80.5135 1.2H88.0015L92.8015 17.648H92.9295L97.7295 1.2H104.578L96.0655 26.928V46H89.0255V26.928ZM116.8 46.64C113.344 46.64 110.699 45.6587 108.864 43.696C107.029 41.7333 106.112 38.96 106.112 35.376V11.824C106.112 8.24 107.029 5.46666 108.864 3.504C110.699 1.54133 113.344 0.559998 116.8 0.559998C120.256 0.559998 122.901 1.54133 124.736 3.504C126.571 5.46666 127.488 8.24 127.488 11.824V35.376C127.488 38.96 126.571 41.7333 124.736 43.696C122.901 45.6587 120.256 46.64 116.8 46.64ZM116.8 40.24C119.232 40.24 120.448 38.768 120.448 35.824V11.376C120.448 8.432 119.232 6.96 116.8 6.96C114.368 6.96 113.152 8.432 113.152 11.376V35.824C113.152 38.768 114.368 40.24 116.8 40.24ZM142.489 46.64C139.076 46.64 136.473 45.68 134.681 43.76C132.889 41.7973 131.993 39.0027 131.993 35.376V1.2H139.033V35.888C139.033 37.424 139.332 38.5333 139.929 39.216C140.569 39.8987 141.465 40.24 142.617 40.24C143.769 40.24 144.644 39.8987 145.241 39.216C145.881 38.5333 146.201 37.424 146.201 35.888V1.2H152.985V35.376C152.985 39.0027 152.089 41.7973 150.297 43.76C148.505 45.68 145.902 46.64 142.489 46.64ZM157.999 1.2H168.431C172.058 1.2 174.703 2.05333 176.367 3.76C178.031 5.424 178.863 8.00533 178.863 11.504V14.256C178.863 18.9067 177.327 21.8507 174.255 23.088V23.216C175.962 23.728 177.156 24.7733 177.839 26.352C178.564 27.9307 178.927 30.0427 178.927 32.688V40.56C178.927 41.84 178.97 42.8853 179.055 43.696C179.14 44.464 179.354 45.232 179.695 46H172.527C172.271 45.2747 172.1 44.592 172.015 43.952C171.93 43.312 171.887 42.16 171.887 40.496V32.304C171.887 30.256 171.546 28.8267 170.863 28.016C170.223 27.2053 169.092 26.8 167.471 26.8H165.039V46H157.999V1.2ZM167.599 20.4C169.007 20.4 170.052 20.0373 170.735 19.312C171.46 18.5867 171.823 17.3707 171.823 15.664V12.208C171.823 10.5867 171.524 9.41333 170.927 8.688C170.372 7.96267 169.476 7.6 168.239 7.6H165.039V20.4H167.599ZM250.752 78.2H260.288L267.584 123H260.544L259.264 114.104V114.232H251.264L249.984 123H243.456L250.752 78.2ZM258.432 108.152L255.296 86.008H255.168L252.095 108.152H258.432ZM270.999 78.2H281.431C285.058 78.2 287.703 79.0533 289.367 80.76C291.031 82.424 291.863 85.0053 291.863 88.504V91.256C291.863 95.9067 290.327 98.8507 287.255 100.088V100.216C288.962 100.728 290.156 101.773 290.839 103.352C291.564 104.931 291.927 107.043 291.927 109.688V117.56C291.927 118.84 291.97 119.885 292.055 120.696C292.14 121.464 292.354 122.232 292.695 123H285.527C285.271 122.275 285.1 121.592 285.015 120.952C284.93 120.312 284.887 119.16 284.887 117.496V109.304C284.887 107.256 284.546 105.827 283.863 105.016C283.223 104.205 282.092 103.8 280.471 103.8H278.039V123H270.999V78.2ZM280.599 97.4C282.007 97.4 283.052 97.0373 283.735 96.312C284.46 95.5867 284.823 94.3707 284.823 92.664V89.208C284.823 87.5867 284.524 86.4133 283.927 85.688C283.372 84.9627 282.476 84.6 281.239 84.6H278.039V97.4H280.599ZM296.812 78.2H316.012V84.6H303.852V96.44H313.516V102.84H303.852V116.6H316.012V123H296.812V78.2ZM2.624 155.2H9.664V173.44H17.216V155.2H24.256V200H17.216V179.84H9.664V200H2.624V155.2ZM29.499 155.2H48.699V161.6H36.539V173.44H46.203V179.84H36.539V193.6H48.699V200H29.499V155.2ZM52.749 155.2H63.181C66.8077 155.2 69.453 156.053 71.117 157.76C72.781 159.424 73.613 162.005 73.613 165.504V168.256C73.613 172.907 72.077 175.851 69.005 177.088V177.216C70.7117 177.728 71.9063 178.773 72.589 180.352C73.3143 181.931 73.677 184.043 73.677 186.688V194.56C73.677 195.84 73.7197 196.885 73.805 197.696C73.8903 198.464 74.1037 199.232 74.445 200H67.277C67.021 199.275 66.8503 198.592 66.765 197.952C66.6797 197.312 66.637 196.16 66.637 194.496V186.304C66.637 184.256 66.2957 182.827 65.613 182.016C64.973 181.205 63.8423 180.8 62.221 180.8H59.789V200H52.749V155.2ZM62.349 174.4C63.757 174.4 64.8023 174.037 65.485 173.312C66.2103 172.587 66.573 171.371 66.573 169.664V166.208C66.573 164.587 66.2743 163.413 65.677 162.688C65.1223 161.963 64.2263 161.6 62.989 161.6H59.789V174.4H62.349ZM78.5615 155.2H97.7615V161.6H85.6015V173.44H95.2655V179.84H85.6015V193.6H97.7615V200H78.5615V155.2ZM101.812 193.216H108.595V200H101.812V193.216Z" fill="#545974"/>
<path d="M2.624 78.2H12.992C16.4907 78.2 19.1147 79.1387 20.864 81.016C22.6133 82.8933 23.488 85.6453 23.488 89.272V93.688C23.488 97.3147 22.6133 100.067 20.864 101.944C19.1147 103.821 16.4907 104.76 12.992 104.76H9.664V123H2.624V78.2ZM12.992 98.36C14.144 98.36 14.9973 98.04 15.552 97.4C16.1493 96.76 16.448 95.672 16.448 94.136V88.824C16.448 87.288 16.1493 86.2 15.552 85.56C14.9973 84.92 14.144 84.6 12.992 84.6H9.664V98.36H12.992ZM30.5015 78.2H40.0375L47.3335 123H40.2935L39.0135 114.104V114.232H31.0135L29.7335 123H23.2055L30.5015 78.2ZM38.1815 108.152L35.0455 86.008H34.9175L31.8455 108.152H38.1815ZM59.7135 123.64C56.3002 123.64 53.7188 122.68 51.9695 120.76C50.2202 118.797 49.3455 116.003 49.3455 112.376V109.816H56.0015V112.888C56.0015 115.789 57.2175 117.24 59.6495 117.24C60.8442 117.24 61.7402 116.899 62.3375 116.216C62.9775 115.491 63.2975 114.339 63.2975 112.76C63.2975 110.883 62.8708 109.24 62.0175 107.832C61.1642 106.381 59.5855 104.653 57.2815 102.648C54.3802 100.088 52.3535 97.784 51.2015 95.736C50.0495 93.6453 49.4735 91.2987 49.4735 88.696C49.4735 85.1547 50.3695 82.424 52.1615 80.504C53.9535 78.5413 56.5562 77.56 59.9695 77.56C63.3402 77.56 65.8788 78.5413 67.5855 80.504C69.3348 82.424 70.2095 85.1973 70.2095 88.824V90.68H63.5535V88.376C63.5535 86.84 63.2548 85.7307 62.6575 85.048C62.0602 84.3227 61.1855 83.96 60.0335 83.96C57.6868 83.96 56.5135 85.3893 56.5135 88.248C56.5135 89.8693 56.9402 91.384 57.7935 92.792C58.6895 94.2 60.2895 95.9067 62.5935 97.912C65.5375 100.472 67.5642 102.797 68.6735 104.888C69.7828 106.979 70.3375 109.432 70.3375 112.248C70.3375 115.917 69.4202 118.733 67.5855 120.696C65.7935 122.659 63.1695 123.64 59.7135 123.64ZM83.526 123.64C80.1127 123.64 77.5313 122.68 75.782 120.76C74.0327 118.797 73.158 116.003 73.158 112.376V109.816H79.814V112.888C79.814 115.789 81.03 117.24 83.462 117.24C84.6567 117.24 85.5527 116.899 86.15 116.216C86.79 115.491 87.11 114.339 87.11 112.76C87.11 110.883 86.6833 109.24 85.83 107.832C84.9767 106.381 83.398 104.653 81.094 102.648C78.1927 100.088 76.166 97.784 75.014 95.736C73.862 93.6453 73.286 91.2987 73.286 88.696C73.286 85.1547 74.182 82.424 75.974 80.504C77.766 78.5413 80.3687 77.56 83.782 77.56C87.1527 77.56 89.6913 78.5413 91.398 80.504C93.1473 82.424 94.022 85.1973 94.022 88.824V90.68H87.366V88.376C87.366 86.84 87.0673 85.7307 86.47 85.048C85.8727 84.3227 84.998 83.96 83.846 83.96C81.4993 83.96 80.326 85.3893 80.326 88.248C80.326 89.8693 80.7527 91.384 81.606 92.792C82.502 94.2 84.102 95.9067 86.406 97.912C89.35 100.472 91.3767 102.797 92.486 104.888C93.5953 106.979 94.15 109.432 94.15 112.248C94.15 115.917 93.2327 118.733 91.398 120.696C89.606 122.659 86.982 123.64 83.526 123.64ZM96.5225 78.2H103.307L106.443 112.632H106.571L109.899 78.2H117.579L120.907 112.632H121.035L124.171 78.2H130.251L125.707 123H116.939L113.739 92.792H113.611L110.411 123H101.067L96.5225 78.2ZM143.988 123.64C140.532 123.64 137.886 122.659 136.052 120.696C134.217 118.733 133.299 115.96 133.299 112.376V88.824C133.299 85.24 134.217 82.4667 136.052 80.504C137.886 78.5413 140.532 77.56 143.988 77.56C147.444 77.56 150.089 78.5413 151.924 80.504C153.758 82.4667 154.676 85.24 154.676 88.824V112.376C154.676 115.96 153.758 118.733 151.924 120.696C150.089 122.659 147.444 123.64 143.988 123.64ZM143.988 117.24C146.42 117.24 147.635 115.768 147.635 112.824V88.376C147.635 85.432 146.42 83.96 143.988 83.96C141.556 83.96 140.34 85.432 140.34 88.376V112.824C140.34 115.768 141.556 117.24 143.988 117.24ZM159.437 78.2H169.869C173.495 78.2 176.141 79.0533 177.805 80.76C179.469 82.424 180.301 85.0053 180.301 88.504V91.256C180.301 95.9067 178.765 98.8507 175.693 100.088V100.216C177.399 100.728 178.594 101.773 179.277 103.352C180.002 104.931 180.365 107.043 180.365 109.688V117.56C180.365 118.84 180.407 119.885 180.493 120.696C180.578 121.464 180.791 122.232 181.133 123H173.965C173.709 122.275 173.538 121.592 173.453 120.952C173.367 120.312 173.325 119.16 173.325 117.496V109.304C173.325 107.256 172.983 105.827 172.301 105.016C171.661 104.205 170.53 103.8 168.909 103.8H166.477V123H159.437V78.2ZM169.037 97.4C170.445 97.4 171.49 97.0373 172.173 96.312C172.898 95.5867 173.26 94.3707 173.26 92.664V89.208C173.26 87.5867 172.962 86.4133 172.365 85.688C171.81 84.9627 170.914 84.6 169.677 84.6H166.477V97.4H169.037ZM185.249 78.2H196.001C199.5 78.2 202.124 79.1387 203.873 81.016C205.622 82.8933 206.497 85.6453 206.497 89.272V111.928C206.497 115.555 205.622 118.307 203.873 120.184C202.124 122.061 199.5 123 196.001 123H185.249V78.2ZM195.873 116.6C197.025 116.6 197.9 116.259 198.497 115.576C199.137 114.893 199.457 113.784 199.457 112.248V88.952C199.457 87.416 199.137 86.3067 198.497 85.624C197.9 84.9413 197.025 84.6 195.873 84.6H192.289V116.6H195.873ZM220.401 123.64C216.988 123.64 214.406 122.68 212.657 120.76C210.908 118.797 210.033 116.003 210.033 112.376V109.816H216.689V112.888C216.689 115.789 217.905 117.24 220.337 117.24C221.532 117.24 222.428 116.899 223.025 116.216C223.665 115.491 223.985 114.339 223.985 112.76C223.985 110.883 223.558 109.24 222.705 107.832C221.852 106.381 220.273 104.653 217.969 102.648C215.068 100.088 213.041 97.784 211.889 95.736C210.737 93.6453 210.161 91.2987 210.161 88.696C210.161 85.1547 211.057 82.424 212.849 80.504C214.641 78.5413 217.244 77.56 220.657 77.56C224.028 77.56 226.566 78.5413 228.273 80.504C230.022 82.424 230.897 85.1973 230.897 88.824V90.68H224.241V88.376C224.241 86.84 223.942 85.7307 223.345 85.048C222.748 84.3227 221.873 83.96 220.721 83.96C218.374 83.96 217.201 85.3893 217.201 88.248C217.201 89.8693 217.628 91.384 218.481 92.792C219.377 94.2 220.977 95.9067 223.281 97.912C226.225 100.472 228.252 102.797 229.361 104.888C230.47 106.979 231.025 109.432 231.025 112.248C231.025 115.917 230.108 118.733 228.273 120.696C226.481 122.659 223.857 123.64 220.401 123.64Z" fill="#FF6464"/>
</svg>
