<svg width="241" height="201" viewBox="0 0 241 201" fill="none" xmlns="http://www.w3.org/2000/svg">
<path d="M11.608 46.64C8.19467 46.64 5.592 45.68 3.8 43.76C2.008 41.7973 1.112 39.0027 1.112 35.376V11.824C1.112 8.19733 2.008 5.424 3.8 3.504C5.592 1.54133 8.19467 0.559998 11.608 0.559998C15.0213 0.559998 17.624 1.54133 19.416 3.504C21.208 5.424 22.104 8.19733 22.104 11.824V15.664H15.448V11.376C15.448 8.432 14.232 6.96 11.8 6.96C9.368 6.96 8.152 8.432 8.152 11.376V35.888C8.152 38.7893 9.368 40.24 11.8 40.24C14.232 40.24 15.448 38.7893 15.448 35.888V27.12H11.928V20.72H22.104V35.376C22.104 39.0027 21.208 41.7973 19.416 43.76C17.624 45.68 15.0213 46.64 11.608 46.64ZM26.624 1.2H45.824V7.6H33.664V19.44H43.328V25.84H33.664V39.6H45.824V46H26.624V1.2ZM49.874 1.2H58.706L65.554 28.016H65.682V1.2H71.954V46H64.722L56.274 13.296H56.146V46H49.874V1.2ZM77.1865 1.2H96.3865V7.6H84.2265V19.44H93.8905V25.84H84.2265V39.6H96.3865V46H77.1865V1.2ZM100.437 1.2H110.869C114.495 1.2 117.141 2.05333 118.805 3.76C120.469 5.424 121.301 8.00533 121.301 11.504V14.256C121.301 18.9067 119.765 21.8507 116.693 23.088V23.216C118.399 23.728 119.594 24.7733 120.277 26.352C121.002 27.9307 121.365 30.0427 121.365 32.688V40.56C121.365 41.84 121.407 42.8853 121.493 43.696C121.578 44.464 121.791 45.232 122.133 46H114.965C114.709 45.2747 114.538 44.592 114.453 43.952C114.367 43.312 114.325 42.16 114.325 40.496V32.304C114.325 30.256 113.983 28.8267 113.301 28.016C112.661 27.2053 111.53 26.8 109.909 26.8H107.477V46H100.437V1.2ZM110.037 20.4C111.445 20.4 112.49 20.0373 113.173 19.312C113.898 18.5867 114.26 17.3707 114.26 15.664V12.208C114.26 10.5867 113.962 9.41333 113.365 8.688C112.81 7.96267 111.914 7.6 110.677 7.6H107.477V20.4H110.037ZM131.689 1.2H141.225L148.521 46H141.481L140.201 37.104V37.232H132.201L130.921 46H124.393L131.689 1.2ZM139.369 31.152L136.233 9.008H136.105L133.033 31.152H139.369ZM154.503 7.6H147.143V1.2H168.903V7.6H161.543V46H154.503V7.6ZM172.312 1.2H191.512V7.6H179.352V19.44H189.016V25.84H179.352V39.6H191.512V46H172.312V1.2ZM1.624 155.2H11.992C15.4907 155.2 18.1147 156.139 19.864 158.016C21.6133 159.893 22.488 162.645 22.488 166.272V170.688C22.488 174.315 21.6133 177.067 19.864 178.944C18.1147 180.821 15.4907 181.76 11.992 181.76H8.664V200H1.624V155.2ZM11.992 175.36C13.144 175.36 13.9973 175.04 14.552 174.4C15.1493 173.76 15.448 172.672 15.448 171.136V165.824C15.448 164.288 15.1493 163.2 14.552 162.56C13.9973 161.92 13.144 161.6 11.992 161.6H8.664V175.36H11.992ZM29.5015 155.2H39.0375L46.3335 200H39.2935L38.0135 191.104V191.232H30.0135L28.7335 200H22.2055L29.5015 155.2ZM37.1815 185.152L34.0455 163.008H33.9175L30.8455 185.152H37.1815ZM58.7135 200.64C55.3002 200.64 52.7188 199.68 50.9695 197.76C49.2202 195.797 48.3455 193.003 48.3455 189.376V186.816H55.0015V189.888C55.0015 192.789 56.2175 194.24 58.6495 194.24C59.8442 194.24 60.7402 193.899 61.3375 193.216C61.9775 192.491 62.2975 191.339 62.2975 189.76C62.2975 187.883 61.8708 186.24 61.0175 184.832C60.1642 183.381 58.5855 181.653 56.2815 179.648C53.3802 177.088 51.3535 174.784 50.2015 172.736C49.0495 170.645 48.4735 168.299 48.4735 165.696C48.4735 162.155 49.3695 159.424 51.1615 157.504C52.9535 155.541 55.5562 154.56 58.9695 154.56C62.3402 154.56 64.8788 155.541 66.5855 157.504C68.3348 159.424 69.2095 162.197 69.2095 165.824V167.68H62.5535V165.376C62.5535 163.84 62.2548 162.731 61.6575 162.048C61.0602 161.323 60.1855 160.96 59.0335 160.96C56.6868 160.96 55.5135 162.389 55.5135 165.248C55.5135 166.869 55.9402 168.384 56.7935 169.792C57.6895 171.2 59.2895 172.907 61.5935 174.912C64.5375 177.472 66.5642 179.797 67.6735 181.888C68.7828 183.979 69.3375 186.432 69.3375 189.248C69.3375 192.917 68.4202 195.733 66.5855 197.696C64.7935 199.659 62.1695 200.64 58.7135 200.64ZM82.526 200.64C79.1127 200.64 76.5313 199.68 74.782 197.76C73.0327 195.797 72.158 193.003 72.158 189.376V186.816H78.814V189.888C78.814 192.789 80.03 194.24 82.462 194.24C83.6567 194.24 84.5527 193.899 85.15 193.216C85.79 192.491 86.11 191.339 86.11 189.76C86.11 187.883 85.6833 186.24 84.83 184.832C83.9767 183.381 82.398 181.653 80.094 179.648C77.1927 177.088 75.166 174.784 74.014 172.736C72.862 170.645 72.286 168.299 72.286 165.696C72.286 162.155 73.182 159.424 74.974 157.504C76.766 155.541 79.3687 154.56 82.782 154.56C86.1527 154.56 88.6913 155.541 90.398 157.504C92.1473 159.424 93.022 162.197 93.022 165.824V167.68H86.366V165.376C86.366 163.84 86.0673 162.731 85.47 162.048C84.8727 161.323 83.998 160.96 82.846 160.96C80.4993 160.96 79.326 162.389 79.326 165.248C79.326 166.869 79.7527 168.384 80.606 169.792C81.502 171.2 83.102 172.907 85.406 174.912C88.35 177.472 90.3767 179.797 91.486 181.888C92.5953 183.979 93.15 186.432 93.15 189.248C93.15 192.917 92.2327 195.733 90.398 197.696C88.606 199.659 85.982 200.64 82.526 200.64ZM95.5225 155.2H102.307L105.443 189.632H105.571L108.899 155.2H116.579L119.907 189.632H120.035L123.171 155.2H129.251L124.707 200H115.939L112.739 169.792H112.611L109.411 200H100.067L95.5225 155.2ZM142.988 200.64C139.532 200.64 136.886 199.659 135.052 197.696C133.217 195.733 132.299 192.96 132.299 189.376V165.824C132.299 162.24 133.217 159.467 135.052 157.504C136.886 155.541 139.532 154.56 142.988 154.56C146.444 154.56 149.089 155.541 150.924 157.504C152.758 159.467 153.676 162.24 153.676 165.824V189.376C153.676 192.96 152.758 195.733 150.924 197.696C149.089 199.659 146.444 200.64 142.988 200.64ZM142.988 194.24C145.42 194.24 146.635 192.768 146.635 189.824V165.376C146.635 162.432 145.42 160.96 142.988 160.96C140.556 160.96 139.34 162.432 139.34 165.376V189.824C139.34 192.768 140.556 194.24 142.988 194.24ZM158.437 155.2H168.869C172.495 155.2 175.141 156.053 176.805 157.76C178.469 159.424 179.301 162.005 179.301 165.504V168.256C179.301 172.907 177.765 175.851 174.693 177.088V177.216C176.399 177.728 177.594 178.773 178.277 180.352C179.002 181.931 179.365 184.043 179.365 186.688V194.56C179.365 195.84 179.407 196.885 179.493 197.696C179.578 198.464 179.791 199.232 180.133 200H172.965C172.709 199.275 172.538 198.592 172.453 197.952C172.367 197.312 172.325 196.16 172.325 194.496V186.304C172.325 184.256 171.983 182.827 171.301 182.016C170.661 181.205 169.53 180.8 167.909 180.8H165.477V200H158.437V155.2ZM168.037 174.4C169.445 174.4 170.49 174.037 171.173 173.312C171.898 172.587 172.26 171.371 172.26 169.664V166.208C172.26 164.587 171.962 163.413 171.365 162.688C170.81 161.963 169.914 161.6 168.677 161.6H165.477V174.4H168.037ZM184.249 155.2H195.001C198.5 155.2 201.124 156.139 202.873 158.016C204.622 159.893 205.497 162.645 205.497 166.272V188.928C205.497 192.555 204.622 195.307 202.873 197.184C201.124 199.061 198.5 200 195.001 200H184.249V155.2ZM194.873 193.6C196.025 193.6 196.9 193.259 197.497 192.576C198.137 191.893 198.457 190.784 198.457 189.248V165.952C198.457 164.416 198.137 163.307 197.497 162.624C196.9 161.941 196.025 161.6 194.873 161.6H191.289V193.6H194.873ZM219.401 200.64C215.988 200.64 213.406 199.68 211.657 197.76C209.908 195.797 209.033 193.003 209.033 189.376V186.816H215.689V189.888C215.689 192.789 216.905 194.24 219.337 194.24C220.532 194.24 221.428 193.899 222.025 193.216C222.665 192.491 222.985 191.339 222.985 189.76C222.985 187.883 222.558 186.24 221.705 184.832C220.852 183.381 219.273 181.653 216.969 179.648C214.068 177.088 212.041 174.784 210.889 172.736C209.737 170.645 209.161 168.299 209.161 165.696C209.161 162.155 210.057 159.424 211.849 157.504C213.641 155.541 216.244 154.56 219.657 154.56C223.028 154.56 225.566 155.541 227.273 157.504C229.022 159.424 229.897 162.197 229.897 165.824V167.68H223.241V165.376C223.241 163.84 222.942 162.731 222.345 162.048C221.748 161.323 220.873 160.96 219.721 160.96C217.374 160.96 216.201 162.389 216.201 165.248C216.201 166.869 216.628 168.384 217.481 169.792C218.377 171.2 219.977 172.907 222.281 174.912C225.225 177.472 227.252 179.797 228.361 181.888C229.47 183.979 230.025 186.432 230.025 189.248C230.025 192.917 229.108 195.733 227.273 197.696C225.481 199.659 222.857 200.64 219.401 200.64ZM234.062 193.216H240.845V200H234.062V193.216Z" fill="#545974"/>
<path d="M10.776 123.64C7.36267 123.64 4.78133 122.68 3.032 120.76C1.28267 118.797 0.408 116.003 0.408 112.376V109.816H7.064V112.888C7.064 115.789 8.28 117.24 10.712 117.24C11.9067 117.24 12.8027 116.899 13.4 116.216C14.04 115.491 14.36 114.339 14.36 112.76C14.36 110.883 13.9333 109.24 13.08 107.832C12.2267 106.381 10.648 104.653 8.344 102.648C5.44267 100.088 3.416 97.784 2.264 95.736C1.112 93.6453 0.536 91.2987 0.536 88.696C0.536 85.1547 1.432 82.424 3.224 80.504C5.016 78.5413 7.61867 77.56 11.032 77.56C14.4027 77.56 16.9413 78.5413 18.648 80.504C20.3973 82.424 21.272 85.1973 21.272 88.824V90.68H14.616V88.376C14.616 86.84 14.3173 85.7307 13.72 85.048C13.1227 84.3227 12.248 83.96 11.096 83.96C8.74933 83.96 7.576 85.3893 7.576 88.248C7.576 89.8693 8.00267 91.384 8.856 92.792C9.752 94.2 11.352 95.9067 13.656 97.912C16.6 100.472 18.6267 102.797 19.736 104.888C20.8453 106.979 21.4 109.432 21.4 112.248C21.4 115.917 20.4827 118.733 18.648 120.696C16.856 122.659 14.232 123.64 10.776 123.64ZM25.4365 78.2H44.6365V84.6H32.4765V96.44H42.1405V102.84H32.4765V116.6H44.6365V123H25.4365V78.2ZM58.6065 123.64C55.2358 123.64 52.6545 122.68 50.8625 120.76C49.1132 118.84 48.2385 116.131 48.2385 112.632V88.568C48.2385 85.0693 49.1132 82.36 50.8625 80.44C52.6545 78.52 55.2358 77.56 58.6065 77.56C61.9772 77.56 64.5372 78.52 66.2865 80.44C68.0785 82.36 68.9745 85.0693 68.9745 88.568V93.304H62.3185V88.12C62.3185 85.3467 61.1452 83.96 58.7985 83.96C56.4518 83.96 55.2785 85.3467 55.2785 88.12V113.144C55.2785 115.875 56.4518 117.24 58.7985 117.24C61.1452 117.24 62.3185 115.875 62.3185 113.144V106.296H68.9745V112.632C68.9745 116.131 68.0785 118.84 66.2865 120.76C64.5372 122.68 61.9772 123.64 58.6065 123.64ZM83.4265 123.64C80.0132 123.64 77.4105 122.68 75.6185 120.76C73.8265 118.797 72.9305 116.003 72.9305 112.376V78.2H79.9705V112.888C79.9705 114.424 80.2692 115.533 80.8665 116.216C81.5065 116.899 82.4025 117.24 83.5545 117.24C84.7065 117.24 85.5812 116.899 86.1785 116.216C86.8185 115.533 87.1385 114.424 87.1385 112.888V78.2H93.9225V112.376C93.9225 116.003 93.0265 118.797 91.2345 120.76C89.4425 122.68 86.8398 123.64 83.4265 123.64ZM98.9365 78.2H109.369C112.995 78.2 115.641 79.0533 117.305 80.76C118.969 82.424 119.801 85.0053 119.801 88.504V91.256C119.801 95.9067 118.265 98.8507 115.193 100.088V100.216C116.899 100.728 118.094 101.773 118.777 103.352C119.502 104.931 119.865 107.043 119.865 109.688V117.56C119.865 118.84 119.907 119.885 119.993 120.696C120.078 121.464 120.291 122.232 120.633 123H113.465C113.209 122.275 113.038 121.592 112.953 120.952C112.867 120.312 112.825 119.16 112.825 117.496V109.304C112.825 107.256 112.483 105.827 111.801 105.016C111.161 104.205 110.03 103.8 108.409 103.8H105.977V123H98.9365V78.2ZM108.537 97.4C109.945 97.4 110.99 97.0373 111.673 96.312C112.398 95.5867 112.76 94.3707 112.76 92.664V89.208C112.76 87.5867 112.462 86.4133 111.865 85.688C111.31 84.9627 110.414 84.6 109.177 84.6H105.977V97.4H108.537ZM124.749 78.2H143.949V84.6H131.789V96.44H141.453V102.84H131.789V116.6H143.949V123H124.749V78.2Z" fill="#FF6464"/>
</svg>
